<mxfile host="65bd71144e">
    <diagram name="Page-1" id="4BYA_pP7nW7vxvZ6V8oZ">
        <mxGraphModel dx="2234" dy="1110" grid="1" gridSize="10" guides="1" tooltips="1" connect="1" arrows="1" fold="1" page="1" pageScale="1" pageWidth="1654" pageHeight="1169" math="0" shadow="0">
            <root>
                <mxCell id="0"/>
                <mxCell id="1" parent="0"/>
                <mxCell id="AjDkDGKgL5P1oxEhJEx_-2" style="edgeStyle=orthogonalEdgeStyle;rounded=0;orthogonalLoop=1;jettySize=auto;html=1;fillColor=#f8cecc;gradientColor=#ea6b66;strokeColor=#b85450;" parent="1" edge="1">
                    <mxGeometry relative="1" as="geometry">
                        <mxPoint x="60" y="290" as="sourcePoint"/>
                        <mxPoint x="200" y="290" as="targetPoint"/>
                    </mxGeometry>
                </mxCell>
                <mxCell id="AjDkDGKgL5P1oxEhJEx_-3" value="i_phys_byte" style="edgeLabel;html=1;align=center;verticalAlign=middle;resizable=0;points=[];" parent="AjDkDGKgL5P1oxEhJEx_-2" vertex="1" connectable="0">
                    <mxGeometry x="-0.2171" relative="1" as="geometry">
                        <mxPoint as="offset"/>
                    </mxGeometry>
                </mxCell>
                <mxCell id="AjDkDGKgL5P1oxEhJEx_-6" style="edgeStyle=orthogonalEdgeStyle;rounded=0;orthogonalLoop=1;jettySize=auto;html=1;" parent="1" source="AjDkDGKgL5P1oxEhJEx_-1" target="AjDkDGKgL5P1oxEhJEx_-5" edge="1">
                    <mxGeometry relative="1" as="geometry"/>
                </mxCell>
                <mxCell id="AjDkDGKgL5P1oxEhJEx_-8" style="edgeStyle=orthogonalEdgeStyle;rounded=0;orthogonalLoop=1;jettySize=auto;html=1;entryX=0;entryY=0.5;entryDx=0;entryDy=0;" parent="1" source="AjDkDGKgL5P1oxEhJEx_-1" target="AjDkDGKgL5P1oxEhJEx_-7" edge="1">
                    <mxGeometry relative="1" as="geometry">
                        <Array as="points">
                            <mxPoint x="620" y="260"/>
                            <mxPoint x="620" y="420"/>
                        </Array>
                    </mxGeometry>
                </mxCell>
                <mxCell id="AjDkDGKgL5P1oxEhJEx_-11" value="i_serdes" style="edgeLabel;html=1;align=center;verticalAlign=middle;resizable=0;points=[];" parent="AjDkDGKgL5P1oxEhJEx_-8" vertex="1" connectable="0">
                    <mxGeometry x="-0.4667" y="-3" relative="1" as="geometry">
                        <mxPoint x="-6" y="-3" as="offset"/>
                    </mxGeometry>
                </mxCell>
                <mxCell id="AjDkDGKgL5P1oxEhJEx_-30" value="(10-Bit)" style="edgeLabel;html=1;align=center;verticalAlign=middle;resizable=0;points=[];" parent="AjDkDGKgL5P1oxEhJEx_-8" vertex="1" connectable="0">
                    <mxGeometry x="-0.7611" relative="1" as="geometry">
                        <mxPoint as="offset"/>
                    </mxGeometry>
                </mxCell>
                <mxCell id="AjDkDGKgL5P1oxEhJEx_-21" style="edgeStyle=orthogonalEdgeStyle;rounded=0;orthogonalLoop=1;jettySize=auto;html=1;exitX=0;exitY=0.25;exitDx=0;exitDy=0;entryX=0;entryY=0.25;entryDx=0;entryDy=0;fillColor=#f8cecc;gradientColor=#ea6b66;strokeColor=#b85450;" parent="1" edge="1">
                    <mxGeometry relative="1" as="geometry">
                        <mxPoint x="60" y="230" as="sourcePoint"/>
                        <mxPoint x="200" y="230" as="targetPoint"/>
                    </mxGeometry>
                </mxCell>
                <mxCell id="AjDkDGKgL5P1oxEhJEx_-22" value="i_phys_k_en" style="edgeLabel;html=1;align=center;verticalAlign=middle;resizable=0;points=[];" parent="AjDkDGKgL5P1oxEhJEx_-21" vertex="1" connectable="0">
                    <mxGeometry x="-0.4878" y="2" relative="1" as="geometry">
                        <mxPoint x="14" as="offset"/>
                    </mxGeometry>
                </mxCell>
                <mxCell id="PRCic4YrRQkoce1kT4Tu-9" style="edgeStyle=orthogonalEdgeStyle;rounded=0;orthogonalLoop=1;jettySize=auto;html=1;entryX=0.75;entryY=1;entryDx=0;entryDy=0;fillColor=#ffcd28;gradientColor=#ffa500;strokeColor=#d79b00;strokeWidth=2;" parent="1" source="AjDkDGKgL5P1oxEhJEx_-1" target="PRCic4YrRQkoce1kT4Tu-1" edge="1">
                    <mxGeometry relative="1" as="geometry">
                        <Array as="points">
                            <mxPoint x="440" y="500"/>
                            <mxPoint x="290" y="500"/>
                        </Array>
                    </mxGeometry>
                </mxCell>
                <mxCell id="AjDkDGKgL5P1oxEhJEx_-1" value="8B10B-ENCODER" style="rounded=0;whiteSpace=wrap;html=1;fillColor=#f5f5f5;gradientColor=#b3b3b3;strokeColor=#666666;" parent="1" vertex="1">
                    <mxGeometry x="380" y="200" width="120" height="120" as="geometry"/>
                </mxCell>
                <mxCell id="AjDkDGKgL5P1oxEhJEx_-4" value="FROM PACKET GENERATOR" style="text;html=1;align=center;verticalAlign=middle;whiteSpace=wrap;rounded=0;" parent="1" vertex="1">
                    <mxGeometry x="60" y="170" width="120" height="30" as="geometry"/>
                </mxCell>
                <mxCell id="AjDkDGKgL5P1oxEhJEx_-9" style="edgeStyle=orthogonalEdgeStyle;rounded=0;orthogonalLoop=1;jettySize=auto;html=1;" parent="1" source="AjDkDGKgL5P1oxEhJEx_-5" edge="1">
                    <mxGeometry relative="1" as="geometry">
                        <mxPoint x="960" y="260" as="targetPoint"/>
                    </mxGeometry>
                </mxCell>
                <mxCell id="AjDkDGKgL5P1oxEhJEx_-10" value="o_serdes" style="edgeLabel;html=1;align=center;verticalAlign=middle;resizable=0;points=[];" parent="AjDkDGKgL5P1oxEhJEx_-9" vertex="1" connectable="0">
                    <mxGeometry x="0.1529" y="3" relative="1" as="geometry">
                        <mxPoint x="-2" y="3" as="offset"/>
                    </mxGeometry>
                </mxCell>
                <mxCell id="AjDkDGKgL5P1oxEhJEx_-5" value="OSERDES&lt;div&gt;(MASTER)&lt;/div&gt;" style="rounded=0;whiteSpace=wrap;html=1;fillColor=#f5f5f5;gradientColor=#b3b3b3;strokeColor=#666666;" parent="1" vertex="1">
                    <mxGeometry x="680" y="200" width="120" height="120" as="geometry"/>
                </mxCell>
                <mxCell id="AjDkDGKgL5P1oxEhJEx_-12" style="edgeStyle=orthogonalEdgeStyle;rounded=0;orthogonalLoop=1;jettySize=auto;html=1;exitX=0.25;exitY=0;exitDx=0;exitDy=0;entryX=0.25;entryY=1;entryDx=0;entryDy=0;fillColor=#ffe6cc;strokeColor=#d79b00;strokeWidth=2;" parent="1" source="AjDkDGKgL5P1oxEhJEx_-7" target="AjDkDGKgL5P1oxEhJEx_-5" edge="1">
                    <mxGeometry relative="1" as="geometry"/>
                </mxCell>
                <mxCell id="AjDkDGKgL5P1oxEhJEx_-13" style="edgeStyle=orthogonalEdgeStyle;rounded=0;orthogonalLoop=1;jettySize=auto;html=1;exitX=0.75;exitY=0;exitDx=0;exitDy=0;entryX=0.75;entryY=1;entryDx=0;entryDy=0;fillColor=#ffe6cc;strokeColor=#d79b00;strokeWidth=2;" parent="1" source="AjDkDGKgL5P1oxEhJEx_-7" target="AjDkDGKgL5P1oxEhJEx_-5" edge="1">
                    <mxGeometry relative="1" as="geometry"/>
                </mxCell>
                <mxCell id="AjDkDGKgL5P1oxEhJEx_-14" style="edgeStyle=orthogonalEdgeStyle;rounded=0;orthogonalLoop=1;jettySize=auto;html=1;exitX=0.25;exitY=1;exitDx=0;exitDy=0;entryX=0.25;entryY=1;entryDx=0;entryDy=0;fillColor=#ffe6cc;strokeColor=#d79b00;strokeWidth=2;" parent="1" target="AjDkDGKgL5P1oxEhJEx_-7" edge="1">
                    <mxGeometry relative="1" as="geometry">
                        <mxPoint x="710" y="630" as="sourcePoint"/>
                    </mxGeometry>
                </mxCell>
                <mxCell id="AjDkDGKgL5P1oxEhJEx_-17" value="i_phys_clk_120" style="edgeLabel;html=1;align=center;verticalAlign=middle;resizable=0;points=[];" parent="AjDkDGKgL5P1oxEhJEx_-14" vertex="1" connectable="0">
                    <mxGeometry x="-0.1494" y="-1" relative="1" as="geometry">
                        <mxPoint y="-26" as="offset"/>
                    </mxGeometry>
                </mxCell>
                <mxCell id="AjDkDGKgL5P1oxEhJEx_-15" style="edgeStyle=orthogonalEdgeStyle;rounded=0;orthogonalLoop=1;jettySize=auto;html=1;exitX=0.75;exitY=1;exitDx=0;exitDy=0;entryX=0.75;entryY=1;entryDx=0;entryDy=0;fillColor=#ffe6cc;strokeColor=#d79b00;strokeWidth=2;" parent="1" target="AjDkDGKgL5P1oxEhJEx_-7" edge="1">
                    <mxGeometry relative="1" as="geometry">
                        <mxPoint x="770" y="630" as="sourcePoint"/>
                    </mxGeometry>
                </mxCell>
                <mxCell id="AjDkDGKgL5P1oxEhJEx_-16" value="i_phys_clk_600" style="edgeLabel;html=1;align=center;verticalAlign=middle;resizable=0;points=[];" parent="AjDkDGKgL5P1oxEhJEx_-15" vertex="1" connectable="0">
                    <mxGeometry x="-0.1096" y="-1" relative="1" as="geometry">
                        <mxPoint as="offset"/>
                    </mxGeometry>
                </mxCell>
                <mxCell id="AjDkDGKgL5P1oxEhJEx_-18" style="edgeStyle=orthogonalEdgeStyle;rounded=0;orthogonalLoop=1;jettySize=auto;html=1;exitX=0.25;exitY=1;exitDx=0;exitDy=0;entryX=0.5;entryY=1;entryDx=0;entryDy=0;fillColor=#ffe6cc;strokeColor=#d79b00;strokeWidth=2;" parent="1" source="AjDkDGKgL5P1oxEhJEx_-7" target="AjDkDGKgL5P1oxEhJEx_-1" edge="1">
                    <mxGeometry relative="1" as="geometry"/>
                </mxCell>
                <mxCell id="AjDkDGKgL5P1oxEhJEx_-7" value="OSERDES&lt;div&gt;(SLAVE)&lt;/div&gt;" style="rounded=0;whiteSpace=wrap;html=1;fillColor=#f5f5f5;gradientColor=#b3b3b3;strokeColor=#666666;" parent="1" vertex="1">
                    <mxGeometry x="680" y="360" width="120" height="120" as="geometry"/>
                </mxCell>
                <mxCell id="AjDkDGKgL5P1oxEhJEx_-24" style="edgeStyle=orthogonalEdgeStyle;rounded=0;orthogonalLoop=1;jettySize=auto;html=1;exitX=0.5;exitY=0;exitDx=0;exitDy=0;" parent="1" source="AjDkDGKgL5P1oxEhJEx_-23" edge="1">
                    <mxGeometry relative="1" as="geometry">
                        <mxPoint x="1120" y="240" as="targetPoint"/>
                    </mxGeometry>
                </mxCell>
                <mxCell id="AjDkDGKgL5P1oxEhJEx_-26" value="o_tx_p" style="edgeLabel;html=1;align=center;verticalAlign=middle;resizable=0;points=[];" parent="AjDkDGKgL5P1oxEhJEx_-24" vertex="1" connectable="0">
                    <mxGeometry x="-0.0192" y="1" relative="1" as="geometry">
                        <mxPoint x="12" as="offset"/>
                    </mxGeometry>
                </mxCell>
                <mxCell id="AjDkDGKgL5P1oxEhJEx_-25" style="edgeStyle=orthogonalEdgeStyle;rounded=0;orthogonalLoop=1;jettySize=auto;html=1;exitX=0.5;exitY=1;exitDx=0;exitDy=0;" parent="1" source="AjDkDGKgL5P1oxEhJEx_-23" edge="1">
                    <mxGeometry relative="1" as="geometry">
                        <mxPoint x="1120" y="280" as="targetPoint"/>
                    </mxGeometry>
                </mxCell>
                <mxCell id="AjDkDGKgL5P1oxEhJEx_-27" value="o_tx_n" style="edgeLabel;html=1;align=center;verticalAlign=middle;resizable=0;points=[];" parent="AjDkDGKgL5P1oxEhJEx_-25" vertex="1" connectable="0">
                    <mxGeometry x="-0.1111" y="-1" relative="1" as="geometry">
                        <mxPoint x="11" as="offset"/>
                    </mxGeometry>
                </mxCell>
                <mxCell id="AjDkDGKgL5P1oxEhJEx_-23" value="" style="triangle;whiteSpace=wrap;html=1;fillColor=#f5f5f5;gradientColor=#b3b3b3;strokeColor=#666666;" parent="1" vertex="1">
                    <mxGeometry x="960" y="220" width="60" height="80" as="geometry"/>
                </mxCell>
                <mxCell id="PRCic4YrRQkoce1kT4Tu-5" style="edgeStyle=orthogonalEdgeStyle;rounded=0;orthogonalLoop=1;jettySize=auto;html=1;" parent="1" source="PRCic4YrRQkoce1kT4Tu-1" target="AjDkDGKgL5P1oxEhJEx_-1" edge="1">
                    <mxGeometry relative="1" as="geometry"/>
                </mxCell>
                <mxCell id="PRCic4YrRQkoce1kT4Tu-7" style="edgeStyle=orthogonalEdgeStyle;rounded=0;orthogonalLoop=1;jettySize=auto;html=1;fillColor=#f8cecc;gradientColor=#ea6b66;strokeColor=#b85450;strokeWidth=3;" parent="1" edge="1">
                    <mxGeometry relative="1" as="geometry">
                        <mxPoint x="230" y="320" as="targetPoint"/>
                        <mxPoint x="230" y="610" as="sourcePoint"/>
                    </mxGeometry>
                </mxCell>
                <mxCell id="PRCic4YrRQkoce1kT4Tu-8" value="i_sys_clk_120" style="edgeLabel;html=1;align=center;verticalAlign=middle;resizable=0;points=[];" parent="PRCic4YrRQkoce1kT4Tu-7" vertex="1" connectable="0">
                    <mxGeometry x="-0.6473" relative="1" as="geometry">
                        <mxPoint as="offset"/>
                    </mxGeometry>
                </mxCell>
                <mxCell id="PRCic4YrRQkoce1kT4Tu-1" value="ELASTIC_BUFFER" style="rounded=0;whiteSpace=wrap;html=1;fillColor=#f5f5f5;gradientColor=#b3b3b3;strokeColor=#666666;" parent="1" vertex="1">
                    <mxGeometry x="200" y="200" width="120" height="120" as="geometry"/>
                </mxCell>
            </root>
        </mxGraphModel>
    </diagram>
</mxfile>